<svg width="117" height="114" viewBox="0 0 117 114" fill="none" xmlns="http://www.w3.org/2000/svg">
<path d="M115.416 112.301C107.81 112.301 99.9427 112.87 92.4235 111.653C78.6844 109.431 66.1827 100.33 55.3118 92.0289C48.3074 86.68 48.1657 79.6094 54.9232 73.9588C61.0206 68.8601 69.1862 67.4307 76.8146 66.1867C84.4347 64.944 93.7633 63.3783 101.264 66.0572C117.896 71.9971 106.358 91.3767 98.2202 99.1533C89.5717 107.417 75.8643 108.156 64.5088 108.156C58.7083 108.156 52.8952 107.682 48.5113 103.46C44.5578 99.6532 41.7482 93.5504 40.4801 88.2723C35.6329 68.0975 51.1108 52.6761 64.6383 39.8264C74.835 30.1406 85.8069 21.4173 96.3743 12.1708C97.1111 11.5261 103.256 6.61235 101.944 5.04638C100.972 3.88578 98.0936 3.76206 96.8924 3.62149C92.4723 3.10424 87.9915 2.93681 83.5504 2.71475C72.7048 2.17248 61.8294 1.9389 50.9724 2.26138C39.2436 2.60976 25.6259 2.52929 14.3141 6.21219C10.1235 7.57657 6.78237 8.24687 4.6638 12.3327C2.99286 15.5552 2.33217 19.1475 2.33217 22.7602C2.33217 24.2175 3.05596 30.0409 1.74927 30.6942" stroke="white" stroke-width="3" stroke-linecap="round"/>
</svg>
