<svg width="12" height="14" viewBox="0 0 12 14" fill="none" xmlns="http://www.w3.org/2000/svg">
<path d="M10.515 0.835037C9.675 0.370037 8.6025 0.490037 7.5075 1.17254L5.3175 2.54504C5.1675 2.63504 4.995 2.68754 4.8225 2.68754H4.125H3.75C1.935 2.68754 0.9375 3.68504 0.9375 5.50004V8.50004C0.9375 10.315 1.935 11.3125 3.75 11.3125H4.125H4.8225C4.995 11.3125 5.1675 11.365 5.3175 11.455L7.5075 12.8275C8.1675 13.24 8.8125 13.4425 9.4125 13.4425C9.8025 13.4425 10.1775 13.3525 10.515 13.165C11.3475 12.7 11.8125 11.7325 11.8125 10.4425V3.55754C11.8125 2.26754 11.3475 1.30004 10.515 0.835037Z" fill="#EFEEE0"/>
</svg>
