<svg width="12" height="11" viewBox="0 0 12 11" fill="none" xmlns="http://www.w3.org/2000/svg">
<path d="M2.60666 10.226C2.48 10.226 2.35333 10.1793 2.25333 10.0793C1.34 9.15932 0.833328 7.94599 0.833328 6.65932C0.833328 3.98599 2.99999 1.81266 5.66666 1.81266L9.71333 1.82599L8.98666 1.13266C8.78666 0.939324 8.77999 0.625991 8.97333 0.425991C9.16666 0.22599 9.48 0.219324 9.68 0.412657L11.3067 1.97266C11.4533 2.11266 11.5 2.33266 11.4267 2.51932C11.3533 2.70599 11.1667 2.83266 10.96 2.83266L5.66666 2.81932C3.55333 2.81932 1.83333 4.54599 1.83333 6.66599C1.83333 7.68599 2.23333 8.65266 2.96 9.37932C3.15333 9.57266 3.15333 9.89266 2.96 10.086C2.86 10.1793 2.73333 10.226 2.60666 10.226Z" fill="white"/>
</svg>
